<svg width="130" height="35" viewBox="0 0 130 35" fill="none" xmlns="http://www.w3.org/2000/svg">
<g clip-path="url(#clip0_1136_982)">
<path d="M17.151 34.6565C26.6233 34.6565 34.3021 26.9777 34.3021 17.5054C34.3021 8.03316 26.6233 0.35437 17.151 0.35437C7.67873 0.35437 -6.10352e-05 8.03316 -6.10352e-05 17.5054C-6.10352e-05 26.9777 7.67873 34.6565 17.151 34.6565Z" fill="#6869FF"/>
<path d="M16.5349 22.5525C15.7459 24.5626 14.9786 26.4971 14.2221 28.4208C13.9411 29.1449 13.6601 29.8798 13.3792 30.6038C13.0549 31.4576 12.6226 31.7278 11.9094 31.5225C11.0556 31.2739 10.5369 30.539 10.7638 29.7501C11.0664 28.7234 11.4339 27.7183 11.7797 26.7241C12.3309 25.1246 12.9036 23.5467 13.4332 21.9365C13.5737 21.4934 13.6709 21.007 13.6818 20.5315C13.7034 18.6294 13.6818 16.7166 13.6818 14.8145C13.6818 14.4146 13.5521 14.2741 13.1738 14.1769C11.0232 13.6149 8.88335 13.0313 6.74352 12.4369C5.97621 12.2316 5.63037 11.6048 5.87894 10.9455C6.09509 10.3619 6.65706 10.1134 7.39195 10.3079C8.6672 10.6321 9.93165 10.9671 11.2069 11.2913C12.3741 11.5939 13.5305 11.9722 14.7192 12.1775C16.5889 12.5018 18.4369 12.2208 20.2525 11.7128C22.0682 11.2157 23.9054 10.751 25.721 10.2863C26.337 10.1242 26.8233 10.2863 27.0935 10.7186C27.3637 11.1617 27.3745 11.6372 27.0179 12.0046C26.8017 12.2316 26.4667 12.3937 26.1533 12.4801C24.0675 13.0637 21.9709 13.6365 19.8743 14.1769C19.5068 14.2741 19.388 14.4471 19.3772 14.7929C19.3015 16.2843 19.107 17.7757 19.1502 19.2779C19.1826 20.3802 19.388 21.515 19.7122 22.5741C20.4255 24.8004 21.2792 26.9942 22.0465 29.2097C22.1654 29.5339 22.2195 29.9014 22.2195 30.2472C22.2087 31.155 21.5062 31.6305 20.6524 31.3387C20.0472 31.1334 19.6581 30.7011 19.4312 30.0851C18.5558 27.7616 17.6588 25.438 16.7726 23.1144C16.7078 22.9523 16.6321 22.7902 16.5241 22.5525H16.5349Z" fill="white"/>
<path d="M19.1504 8.21125C19.1504 9.70264 17.9832 10.9022 16.5026 10.9022C15.0545 10.9022 13.844 9.71345 13.8224 8.26528C13.8008 6.81711 15.0436 5.56348 16.4918 5.56348C17.94 5.56348 19.1396 6.75227 19.1504 8.21125Z" fill="white"/>
<g opacity="0.1">
<path d="M17.2591 22.5523C16.4702 24.5625 15.7028 26.497 14.9463 28.4207C14.6653 29.1448 14.3844 29.8796 14.1034 30.6037C13.7792 31.4575 13.3469 31.7277 12.6336 31.5223C11.7798 31.2738 11.2611 30.5389 11.488 29.75C11.7906 28.7233 12.1581 27.7182 12.5039 26.7239C13.0551 25.1245 13.6279 23.5466 14.1574 21.9363C14.2979 21.4932 14.3952 21.0069 14.406 20.5314C14.4276 18.6293 14.406 16.7164 14.406 14.8144C14.406 14.4145 14.2763 14.274 13.898 14.1768C11.7474 13.6148 9.60757 13.0312 7.46774 12.4368C6.70043 12.2315 6.3546 11.6046 6.60316 10.9454C6.81931 10.3618 7.38128 10.1132 8.11617 10.3078C9.39142 10.632 10.6559 10.967 11.9311 11.2912C13.0983 11.5938 14.2547 11.9721 15.4435 12.1774C17.3131 12.5016 19.1612 12.2206 20.9768 11.7127C22.7924 11.2156 24.6296 10.7509 26.4452 10.2861C27.0612 10.124 27.5476 10.2862 27.8177 10.7184C28.0879 11.1615 28.0987 11.6371 27.7421 12.0045C27.5259 12.2314 27.1909 12.3936 26.8775 12.48C24.7917 13.0636 22.6951 13.6364 20.5985 14.1768C20.2311 14.274 20.1122 14.4469 20.1014 14.7928C20.0257 16.2842 19.8312 17.7756 19.8744 19.2778C19.9069 20.3801 20.1122 21.5149 20.4364 22.574C21.1497 24.8002 22.0035 26.9941 22.7708 29.2096C22.8896 29.5338 22.9437 29.9013 22.9437 30.2471C22.9329 31.1549 22.2304 31.6304 21.3766 31.3386C20.7714 31.1333 20.3824 30.701 20.1554 30.085C19.28 27.7614 18.383 25.4379 17.4968 23.1143C17.432 22.9522 17.3563 22.7901 17.2483 22.5523H17.2591Z" fill="white"/>
<path d="M19.8743 8.21112C19.8743 9.70252 18.7072 10.9021 17.2266 10.9021C15.7784 10.9021 14.568 9.71333 14.5464 8.26516C14.5248 6.81699 15.7676 5.56335 17.2158 5.56335C18.6639 5.56335 19.8635 6.75215 19.8743 8.21112Z" fill="white"/>
</g>
<g opacity="0.2">
<path d="M17.2591 22.5523C16.4702 24.5625 15.7028 26.497 14.9463 28.4207C14.6653 29.1448 14.3844 29.8796 14.1034 30.6037C13.7792 31.4575 13.3469 31.7277 12.6336 31.5223C11.7798 31.2738 11.2611 30.5389 11.488 29.75C11.7906 28.7233 12.1581 27.7182 12.5039 26.7239C13.0551 25.1245 13.6279 23.5466 14.1574 21.9363C14.2979 21.4932 14.3952 21.0069 14.406 20.5314C14.4276 18.6293 14.406 16.7164 14.406 14.8144C14.406 14.4145 14.2763 14.274 13.898 14.1768C11.7474 13.6148 9.60757 13.0312 7.46774 12.4368C6.70043 12.2315 6.3546 11.6046 6.60316 10.9454C6.81931 10.3618 7.38128 10.1132 8.11617 10.3078C9.39142 10.632 10.6559 10.967 11.9311 11.2912C13.0983 11.5938 14.2547 11.9721 15.4435 12.1774C17.3131 12.5016 19.1612 12.2206 20.9768 11.7127C22.7924 11.2156 24.6296 10.7509 26.4452 10.2861C27.0612 10.124 27.5476 10.2862 27.8177 10.7184C28.0879 11.1615 28.0987 11.6371 27.7421 12.0045C27.5259 12.2314 27.1909 12.3936 26.8775 12.48C24.7917 13.0636 22.6951 13.6364 20.5985 14.1768C20.2311 14.274 20.1122 14.4469 20.1014 14.7928C20.0257 16.2842 19.8312 17.7756 19.8744 19.2778C19.9069 20.3801 20.1122 21.5149 20.4364 22.574C21.1497 24.8002 22.0035 26.9941 22.7708 29.2096C22.8896 29.5338 22.9437 29.9013 22.9437 30.2471C22.9329 31.1549 22.2304 31.6304 21.3766 31.3386C20.7714 31.1333 20.3824 30.701 20.1554 30.085C19.28 27.7614 18.383 25.4379 17.4968 23.1143C17.432 22.9522 17.3563 22.7901 17.2483 22.5523H17.2591Z" fill="white"/>
<path d="M19.8743 8.21112C19.8743 9.70252 18.7072 10.9021 17.2266 10.9021C15.7784 10.9021 14.568 9.71333 14.5464 8.26516C14.5248 6.81699 15.7676 5.56335 17.2158 5.56335C18.6639 5.56335 19.8635 6.75215 19.8743 8.21112Z" fill="white"/>
</g>
<g opacity="0.3">
<path d="M17.9939 22.5523C17.2049 24.5625 16.4376 26.497 15.6811 28.4207C15.4001 29.1448 15.1191 29.8796 14.8381 30.6037C14.5139 31.4575 14.0816 31.7277 13.3684 31.5223C12.5146 31.2738 11.9958 30.5389 12.2228 29.75C12.5254 28.7233 12.8928 27.7182 13.2387 26.7239C13.7898 25.1245 14.3626 23.5466 14.8922 21.9363C15.0327 21.4932 15.1299 21.0069 15.1407 20.5314C15.1624 18.6293 15.1407 16.7164 15.1407 14.8144C15.1407 14.4145 15.0111 14.274 14.6328 14.1768C12.4822 13.6148 10.3423 13.0312 8.20251 12.4368C7.4352 12.2315 7.08937 11.6046 7.33793 10.9454C7.55408 10.3618 8.11605 10.1132 8.85094 10.3078C10.1262 10.632 11.3906 10.967 12.6659 11.2912C13.8331 11.5938 14.9894 11.9721 16.1782 12.1774C18.0479 12.5016 19.8959 12.2206 21.7115 11.7127C23.5272 11.2156 25.3644 10.7509 27.18 10.2861C27.796 10.124 28.2823 10.2862 28.5525 10.7184C28.8227 11.1615 28.8335 11.6371 28.4769 12.0045C28.2607 12.2314 27.9257 12.3936 27.6123 12.48C25.5265 13.0636 23.4299 13.6364 21.3333 14.1768C20.9658 14.274 20.847 14.4469 20.8362 14.7928C20.7605 16.2842 20.566 17.7756 20.6092 19.2778C20.6416 20.3801 20.847 21.5149 21.1712 22.574C21.8845 24.8002 22.7382 26.9941 23.5055 29.2096C23.6244 29.5338 23.6785 29.9013 23.6785 30.2471C23.6676 31.1549 22.9652 31.6304 22.1114 31.3386C21.5062 31.1333 21.1171 30.701 20.8902 30.085C20.0148 27.7614 19.1178 25.4379 18.2316 23.1143C18.1668 22.9522 18.0911 22.7901 17.983 22.5523H17.9939Z" fill="white"/>
<path d="M20.5983 8.21112C20.5983 9.70252 19.4311 10.9021 17.9505 10.9021C16.5024 10.9021 15.292 9.71333 15.2703 8.26516C15.2487 6.81699 16.4916 5.56335 17.9397 5.56335C19.3879 5.56335 20.5875 6.75215 20.5983 8.21112Z" fill="white"/>
</g>
<path d="M48.7191 27.7725L43.3587 9.2489H45.7471L49.8647 23.9035L53.9714 9.25971H56.3814L60.499 23.9035L64.6057 9.2489H67.0157L61.6553 27.7725H59.3642L55.1926 13.2476L51.021 27.7725H48.7299H48.7191Z" fill="#020202"/>
<path d="M73.5649 28.1615C72.1816 28.1615 70.9928 27.8481 69.9985 27.2213C69.0042 26.5944 68.2261 25.7299 67.6858 24.6275C67.1454 23.5252 66.8752 22.2499 66.8752 20.8126C66.8752 19.3752 67.1454 18.0892 67.6966 16.9868C68.2477 15.8845 69.0259 15.0307 70.0201 14.4147C71.0252 13.7987 72.2032 13.4961 73.5541 13.4961C74.905 13.4961 76.137 13.8095 77.1421 14.4363C78.1472 15.0631 78.9145 15.9277 79.4548 17.0192C79.9952 18.1216 80.2546 19.386 80.2546 20.8126C80.2546 22.2391 79.9844 23.536 79.444 24.6383C78.9037 25.7407 78.1364 26.6053 77.1313 27.2213C76.1262 27.8481 74.9374 28.1507 73.5541 28.1507L73.5649 28.1615ZM73.5649 25.9892C75.0023 25.9892 76.0614 25.5137 76.7746 24.5519C77.4879 23.59 77.8337 22.3472 77.8337 20.8234C77.8337 19.2996 77.4771 18.0135 76.7638 17.0841C76.0506 16.1439 74.9806 15.6792 73.5649 15.6792C72.5922 15.6792 71.8033 15.8953 71.1765 16.3384C70.5497 16.7707 70.085 17.3759 69.7716 18.154C69.4582 18.9321 69.3068 19.8183 69.3068 20.8342C69.3068 22.3904 69.6635 23.6441 70.3876 24.5951C71.1117 25.5353 72.1708 26.0109 73.5649 26.0109V25.9892Z" fill="#020202"/>
<path d="M88.1545 28.1507C86.501 28.1507 85.1393 27.7832 84.0802 27.0592C83.0211 26.3351 82.3726 25.3192 82.1349 24.0223L84.4801 23.6441C84.6638 24.4006 85.1069 24.995 85.7769 25.4381C86.4578 25.8812 87.2899 26.0973 88.295 26.0973C89.2352 26.0973 89.9809 25.9028 90.5321 25.5029C91.0725 25.1139 91.3534 24.5735 91.3534 23.8926C91.3534 23.5036 91.267 23.1902 91.0833 22.9416C90.8995 22.693 90.5321 22.4661 89.9701 22.25C89.4081 22.0338 88.5652 21.7744 87.4304 21.461C86.1984 21.1368 85.2366 20.8018 84.5341 20.456C83.8316 20.1101 83.3237 19.6994 83.0319 19.2455C82.7293 18.7808 82.578 18.2189 82.578 17.5488C82.578 16.7383 82.8049 16.025 83.248 15.409C83.6911 14.793 84.3179 14.3283 85.1177 13.9824C85.9174 13.6474 86.8468 13.4745 87.9167 13.4745C88.9867 13.4745 89.9161 13.6366 90.7482 13.9716C91.5804 14.3066 92.2504 14.7822 92.7584 15.3982C93.2663 16.0142 93.5689 16.7275 93.6662 17.538L91.321 17.9595C91.213 17.2246 90.8455 16.641 90.2403 16.2087C89.6351 15.7764 88.857 15.5495 87.9167 15.5171C87.0198 15.4954 86.2849 15.6575 85.7229 16.0034C85.1609 16.36 84.8799 16.8247 84.8799 17.4191C84.8799 17.765 84.988 18.0459 85.1933 18.2837C85.3987 18.5215 85.7985 18.7484 86.3605 18.9537C86.9225 19.1591 87.7654 19.4077 88.8462 19.6886C90.0674 20.002 91.04 20.3371 91.7425 20.6937C92.445 21.0612 92.9529 21.4826 93.2555 21.9798C93.5581 22.4769 93.7094 23.0821 93.7094 23.7954C93.7094 25.1355 93.2123 26.1838 92.2288 26.9511C91.2454 27.7184 89.8837 28.1075 88.1545 28.1075V28.1507Z" fill="#020202"/>
<path d="M102.474 28.1615C101.091 28.1615 99.9021 27.8481 98.9078 27.2213C97.9136 26.5944 97.1354 25.7299 96.5951 24.6275C96.0547 23.5252 95.7845 22.2499 95.7845 20.8126C95.7845 19.3752 96.0547 18.0892 96.6059 16.9868C97.1571 15.8845 97.9352 15.0307 98.9295 14.4147C99.9345 13.7987 101.113 13.4961 102.463 13.4961C103.814 13.4961 105.046 13.8095 106.051 14.4363C107.056 15.0631 107.824 15.9277 108.364 17.0192C108.905 18.1216 109.164 19.386 109.164 20.8126C109.164 22.2391 108.894 23.536 108.353 24.6383C107.813 25.7407 107.046 26.6053 106.041 27.2213C105.036 27.8481 103.847 28.1507 102.463 28.1507L102.474 28.1615ZM102.474 25.9892C103.912 25.9892 104.971 25.5137 105.684 24.5519C106.397 23.59 106.743 22.3472 106.743 20.8234C106.743 19.2996 106.386 18.0135 105.673 17.0841C104.96 16.1439 103.89 15.6792 102.474 15.6792C101.502 15.6792 100.713 15.8953 100.086 16.3384C99.459 16.7707 98.9943 17.3759 98.6809 18.154C98.3675 18.9321 98.2162 19.8183 98.2162 20.8342C98.2162 22.3904 98.5728 23.6441 99.2969 24.5951C100.021 25.5353 101.08 26.0109 102.474 26.0109V25.9892Z" fill="#020202"/>
<path d="M117.918 28.1615C116.534 28.1615 115.346 27.8481 114.351 27.2213C113.357 26.5944 112.579 25.7299 112.039 24.6275C111.498 23.5252 111.228 22.2499 111.228 20.8126C111.228 19.3752 111.498 18.0892 112.049 16.9868C112.601 15.8845 113.379 15.0307 114.373 14.4147C115.378 13.7987 116.556 13.4961 117.907 13.4961C119.258 13.4961 120.49 13.8095 121.495 14.4363C122.5 15.0631 123.267 15.9277 123.808 17.0192C124.348 18.1216 124.607 19.386 124.607 20.8126C124.607 22.2391 124.337 23.536 123.797 24.6383C123.257 25.7407 122.489 26.6053 121.484 27.2213C120.479 27.8481 119.29 28.1507 117.907 28.1507L117.918 28.1615ZM117.918 25.9892C119.355 25.9892 120.414 25.5137 121.128 24.5519C121.841 23.59 122.187 22.3472 122.187 20.8234C122.187 19.2996 121.83 18.0135 121.117 17.0841C120.403 16.1439 119.334 15.6792 117.918 15.6792C116.945 15.6792 116.156 15.8953 115.529 16.3384C114.903 16.7707 114.438 17.3759 114.124 18.154C113.811 18.9321 113.66 19.8183 113.66 20.8342C113.66 22.3904 114.016 23.6441 114.74 24.5951C115.465 25.5353 116.524 26.0109 117.918 26.0109V25.9892Z" fill="#020202"/>
<path d="M127.709 27.7724V8.85974H130V27.7724H127.709Z" fill="#020202"/>
</g>
<defs>
<clipPath id="clip0_1136_982">
<rect width="130" height="34.2913" fill="white" transform="translate(-6.10352e-05 0.35437)"/>
</clipPath>
</defs>
</svg>
